<?xml version="1.0" encoding="UTF-8"?>
<svg width="40px" height="40px" viewBox="0 0 40 40" version="1.1" xmlns="http://www.w3.org/2000/svg" xmlns:xlink="http://www.w3.org/1999/xlink">
    <!-- Generator: Sketch 54.1 (76490) - https://sketchapp.com -->
    <title>ic_cod</title>
    <desc>Created with Sketch.</desc>
    <g id="ic_cod" stroke="none" stroke-width="1" fill="none" fill-rule="evenodd">
        <circle id="椭圆形" stroke="#000000" stroke-width="2" cx="20" cy="20" r="16"></circle>
        <circle id="椭圆形" stroke="#000000" stroke-width="2" cx="20" cy="20" r="11"></circle>
        <path d="M16.3577236,17.3907563 L20.1788618,17.3907563 C20.097561,16.8361345 19.8861789,16.4159664 19.5447154,16.1134454 C19.1219512,15.7268908 18.504065,15.5420168 17.6910569,15.5420168 L16,15.5420168 L16.3414634,14.5 L23.9837398,14.5 L23.6585366,15.5420168 L21.2357724,15.5420168 C21.6260163,16.0462185 21.8699187,16.6512605 21.9512195,17.3907563 L24,17.3907563 L23.6585366,18.4327731 L21.9186992,18.4327731 C21.8211382,19.0378151 21.5934959,19.5420168 21.203252,19.9621849 C20.6829268,20.5 19.9837398,20.8529412 19.1219512,21.0378151 C19.2520325,21.1554622 19.5121951,21.4579832 19.8861789,21.9453782 L23.3658537,26.5 L20.9593496,26.5 L18.0487805,22.5168067 C17.7723577,22.1302521 17.495935,21.8445378 17.2195122,21.6428571 C16.8943089,21.4243697 16.5365854,21.3067227 16.1463415,21.3067227 L16.1463415,20.0798319 L17.1382114,20.0798319 C18.1626016,20.0798319 18.9430894,19.8781513 19.4634146,19.5084034 C19.8211382,19.2394958 20.0487805,18.8697479 20.1463415,18.4327731 L16.0325203,18.4327731 L16.3577236,17.3907563 Z" id="₹" fill="#000000" fill-rule="nonzero"></path>
    </g>
</svg>