<?xml version="1.0" encoding="UTF-8"?>
<svg width="40px" height="40px" viewBox="0 0 40 40" version="1.1" xmlns="http://www.w3.org/2000/svg" xmlns:xlink="http://www.w3.org/1999/xlink">
    <!-- Generator: Sketch 54.1 (76490) - https://sketchapp.com -->
    <title>ic_payment</title>
    <desc>Created with Sketch.</desc>
    <g id="ic_payment" stroke="none" stroke-width="1" fill="none" fill-rule="evenodd">
        <g id="编组-2" transform="translate(6.000000, 5.000000)">
            <path d="M25.8364258,14.4962153 C27.5413086,17.4143794 27.9927734,22.4098872 28.0000259,30.2808327 C21.7785645,30.2354731 6.12988281,30.3424067 2.58817147e-05,30.2808327 C-0.00647139466,21.727175 1.21032548,14.2244368 3.65041651,9.77261828 C6.09050753,5.32079972 9.47138672,2.43547313 13.9875,0.333910632 C15.4761719,1.21711376 16.5425522,1.85534185 17.6789063,2.93039501" id="路径" stroke="#000000" stroke-width="2" transform="translate(14.000013, 15.317199) scale(1, -1) translate(-14.000013, -15.317199) "></path>
            <rect id="矩形" fill="#000000" x="0" y="4" width="28" height="2"></rect>
            <g id="编组" transform="translate(16.000000, 15.952637)" stroke="#000000" stroke-width="2">
                <circle id="椭圆形" cx="7.5" cy="7.54736328" r="7.5"></circle>
            </g>
            <path d="M21.2122927,21.1680672 L24.0781463,21.1680672 C24.0171707,20.7521008 23.8586341,20.4369748 23.6025366,20.210084 C23.2854634,19.9201681 22.8220488,19.7815126 22.2122927,19.7815126 L20.944,19.7815126 L21.2000976,19 L26.9318049,19 L26.6879024,19.7815126 L24.8708293,19.7815126 C25.1635122,20.1596639 25.346439,20.6134454 25.4074146,21.1680672 L26.944,21.1680672 L26.6879024,21.9495798 L25.3830244,21.9495798 C25.3098537,22.4033613 25.139122,22.7815126 24.846439,23.0966387 C24.4561951,23.5 23.9318049,23.7647059 23.2854634,23.9033613 C23.3830244,23.9915966 23.5781463,24.2184874 23.8586341,24.5840336 L26.4683902,28 L24.6635122,28 L22.4805854,25.012605 C22.2732683,24.7226891 22.0659512,24.5084034 21.8586341,24.3571429 C21.6147317,24.1932773 21.346439,24.105042 21.0537561,24.105042 L21.0537561,23.1848739 L21.7976585,23.1848739 C22.5659512,23.1848739 23.1513171,23.0336134 23.541561,22.7563025 C23.8098537,22.5546218 23.9805854,22.2773109 24.0537561,21.9495798 L20.9683902,21.9495798 L21.2122927,21.1680672 Z" id="₹" fill="#000000" fill-rule="nonzero"></path>
        </g>
    </g>
</svg>